<svg width="18" height="19" viewBox="0 0 18 19" fill="none" xmlns="http://www.w3.org/2000/svg">
<path fill-rule="evenodd" clip-rule="evenodd" d="M0.818182 0.75415C0.366312 0.75415 0 1.12046 0 1.57233V8.11779C0 8.56966 0.366312 8.93597 0.818182 8.93597H7.36364C7.81551 8.93597 8.18182 8.56966 8.18182 8.11779V1.57233C8.18182 1.12046 7.81551 0.75415 7.36364 0.75415H0.818182ZM1.63636 7.2996V2.39051H6.54545V7.2996H1.63636ZM10.6364 0.75415C10.1845 0.75415 9.81818 1.12046 9.81818 1.57233V8.11779C9.81818 8.56966 10.1845 8.93597 10.6364 8.93597H17.1818C17.6337 8.93597 18 8.56966 18 8.11779V1.57233C18 1.12046 17.6337 0.75415 17.1818 0.75415H10.6364ZM11.4545 7.2996V2.39051H16.3636V7.2996H11.4545ZM0 11.3905C0 10.9386 0.366312 10.5723 0.818182 10.5723H7.36364C7.81551 10.5723 8.18182 10.9386 8.18182 11.3905V17.936C8.18182 18.3878 7.81551 18.7542 7.36364 18.7542H0.818182C0.366312 18.7542 0 18.3878 0 17.936V11.3905ZM1.63636 12.2087V17.1178H6.54545V12.2087H1.63636ZM10.6364 10.5723C10.1845 10.5723 9.81818 10.9386 9.81818 11.3905V17.936C9.81818 18.3878 10.1845 18.7542 10.6364 18.7542H17.1818C17.6337 18.7542 18 18.3878 18 17.936V11.3905C18 10.9386 17.6337 10.5723 17.1818 10.5723H10.6364ZM11.4545 17.1178V12.2087H16.3636V17.1178H11.4545Z" fill="#363636"/>
</svg>
